<?xml version="1.0" standalone="no"?>
<!DOCTYPE svg PUBLIC "-//W3C//DTD SVG 20010904//EN"
 "http://www.w3.org/TR/2001/REC-SVG-20010904/DTD/svg10.dtd">
<svg version="1.0" xmlns="http://www.w3.org/2000/svg"
 width="484.000000pt" height="484.000000pt" viewBox="0 0 484.000000 484.000000"
 preserveAspectRatio="xMidYMid meet">
<metadata>
Created by potrace 1.11, written by Peter Selinger 2001-2013
</metadata>
<g transform="translate(0.000000,484.000000) scale(0.100000,-0.100000)"
fill="#000000" stroke="none">
<path d="M2219 4836 c-2 -2 -33 -7 -69 -10 -249 -25 -522 -102 -765 -217 -522
-246 -963 -702 -1188 -1231 -96 -225 -153 -439 -186 -703 -10 -76 -7 -485 4
-550 11 -67 26 -158 31 -190 11 -62 45 -187 78 -283 123 -361 312 -668 576
-932 121 -122 154 -151 277 -242 271 -202 593 -351 903 -419 95 -20 106 -22
190 -34 25 -4 56 -9 70 -12 14 -3 122 -6 240 -8 197 -3 275 1 400 20 80 13 85
14 110 19 14 3 39 8 55 12 80 16 252 69 360 111 427 168 792 450 1073 830 242
329 404 745 449 1157 10 91 10 439 0 531 -74 688 -456 1328 -1032 1727 -212
147 -457 263 -714 338 -92 27 -180 45 -356 75 -42 7 -500 17 -506 11z m426
-117 c524 -51 1015 -281 1385 -649 132 -130 157 -159 239 -268 214 -285 361
-621 425 -972 24 -132 27 -172 31 -375 4 -186 -3 -290 -26 -410 -6 -33 -13
-73 -16 -90 -3 -16 -13 -64 -24 -105 -107 -408 -303 -753 -599 -1051 -151
-152 -299 -270 -451 -358 -266 -157 -529 -253 -819 -302 -219 -37 -608 -33
-780 7 -35 8 -52 12 -92 18 -19 3 -87 21 -151 41 -385 116 -694 301 -977 585
-270 270 -454 568 -569 923 -84 258 -111 453 -106 747 1 113 5 216 8 230 3 14
8 48 12 75 10 82 45 231 77 334 118 375 300 673 578 951 283 284 592 469 976
585 63 19 129 37 147 40 17 3 64 12 102 20 39 8 106 17 150 21 44 4 81 8 83 9
8 7 311 3 397 -6z"/>
<path d="M2275 3629 c-99 -13 -119 -46 -125 -209 l-5 -125 -64 -31 c-35 -17
-71 -29 -81 -27 -10 3 -52 38 -94 79 -79 77 -107 94 -157 94 -47 0 -77 -21
-190 -137 -118 -120 -129 -135 -129 -189 0 -46 24 -84 95 -153 87 -84 87 -84
63 -150 -32 -88 -35 -90 -170 -92 -130 -1 -164 -14 -193 -69 -24 -46 -24 -353
-1 -399 31 -59 66 -71 195 -70 132 1 136 -1 169 -92 l21 -57 -22 -29 c-12 -16
-44 -49 -70 -73 -63 -58 -87 -99 -87 -144 0 -55 18 -80 137 -197 120 -119 135
-129 190 -129 44 0 70 15 133 79 25 25 60 58 78 73 l33 27 57 -20 c89 -33 91
-36 93 -169 2 -129 12 -160 62 -190 29 -18 51 -20 207 -20 158 0 178 2 208 20
49 30 62 72 62 198 0 125 1 127 91 160 66 24 70 23 153 -65 64 -68 104 -93
150 -93 55 0 80 18 199 138 116 116 142 160 126 215 -10 34 -22 50 -102 131
-75 75 -79 88 -54 151 34 84 35 85 159 85 126 0 168 13 198 62 18 30 20 50 20
208 0 158 -2 178 -20 208 -30 49 -72 62 -198 62 -124 0 -125 1 -159 85 -13 32
-17 58 -13 71 5 11 37 49 72 84 85 85 98 106 98 163 0 49 0 49 -117 169 -124
127 -154 148 -202 148 -51 0 -82 -18 -164 -100 -84 -83 -84 -83 -157 -54 -79
30 -80 33 -80 158 0 192 -24 215 -236 219 -77 1 -158 0 -179 -4z m295 -118 c4
-7 7 -58 7 -114 1 -155 27 -196 153 -245 121 -47 156 -38 266 69 44 44 84 79
90 79 12 0 214 -202 214 -215 0 -6 -32 -42 -71 -80 -110 -108 -124 -157 -78
-275 51 -127 91 -151 253 -154 l111 -1 3 -149 c2 -106 -1 -152 -9 -157 -6 -4
-58 -7 -114 -7 -152 0 -192 -24 -239 -142 -52 -127 -40 -174 73 -285 39 -38
71 -74 71 -80 0 -13 -202 -215 -215 -215 -6 0 -42 32 -80 71 -39 39 -82 77
-98 85 -41 22 -109 19 -174 -6 -130 -52 -154 -90 -156 -253 l-2 -112 -152 -3
c-178 -3 -162 -16 -161 133 0 141 -28 185 -152 234 -118 46 -167 32 -275 -78
-38 -39 -74 -71 -80 -71 -13 0 -215 202 -215 215 0 6 32 42 71 80 110 108 124
157 78 274 -51 129 -89 152 -251 153 -59 0 -111 5 -114 10 -12 19 -7 290 5
297 6 4 58 8 115 8 153 1 195 27 245 153 46 117 34 162 -73 269 -42 42 -76 81
-76 86 0 13 202 215 215 215 6 0 42 -32 80 -71 82 -83 110 -99 170 -101 50 -1
143 33 194 70 49 37 63 79 65 206 l1 111 29 5 c58 10 268 3 276 -9z"/>
<path d="M2286 2816 c-103 -35 -175 -93 -229 -188 -83 -143 -69 -338 33 -467
137 -174 393 -210 572 -81 172 122 225 350 126 543 -24 48 -118 141 -166 166
-106 54 -226 64 -336 27z m269 -120 c230 -113 228 -440 -3 -553 -74 -36 -182
-39 -253 -6 -109 49 -180 155 -185 272 -10 232 232 389 441 287z"/>
</g>
</svg>
